ISO-10303-21;
HEADER;
FILE_DESCRIPTION (( 'STEP AP214' ),
    '1' );
FILE_NAME ('ellip.STEP',
    '2025-02-03T07:06:42',
    ( '' ),
    ( '' ),
    'SwSTEP 2.0',
    'SolidWorks 2022',
    '' );
FILE_SCHEMA (( 'AUTOMOTIVE_DESIGN' ));
ENDSEC;

DATA;
#1 = PRODUCT_RELATED_PRODUCT_CATEGORY ( 'part', '', ( #7 ) ) ;
#2 =( BOUNDED_CURVE ( )  B_SPLINE_CURVE ( 3, ( #27, #53, #79, #46 ),
 .UNSPECIFIED., .F., .T. ) 
 B_SPLINE_CURVE_WITH_KNOTS ( ( 4, 4 ),
 ( 3.141592653589793116, 6.283185307179586232 ),
 .UNSPECIFIED. ) 
 CURVE ( )  GEOMETRIC_REPRESENTATION_ITEM ( )  RATIONAL_B_SPLINE_CURVE ( ( 1.000000000000000000, 0.3333333333333333703, 0.3333333333333333703, 1.000000000000000000 ) ) 
 REPRESENTATION_ITEM ( '' )  );
#3 =( LENGTH_UNIT ( ) NAMED_UNIT ( * ) SI_UNIT ( .MILLI., .METRE. ) );
#4 = CARTESIAN_POINT ( 'NONE',  ( 1000.000000000000000, -2.999519565323715391E-30, -3.143182988685429587E-14 ) ) ;
#5 = EDGE_LOOP ( 'NONE', ( #56, #88 ) ) ;
#6 = CARTESIAN_POINT ( 'NONE',  ( -1000.000000000000000, 799.9999999999996589, -399.9999999999999432 ) ) ;
#7 = PRODUCT ( 'ellip', 'ellip', '', ( #92 ) ) ;
#8 = DIRECTION ( 'NONE',  ( 0.000000000000000000, 0.000000000000000000, 1.000000000000000000 ) ) ;
#9 = CARTESIAN_POINT ( 'NONE',  ( -1000.000000000000000, 0.000000000000000000, 6.938893903907229955E-15 ) ) ;
#10 = FACE_OUTER_BOUND ( 'NONE', #49, .T. ) ;
#11 =( NAMED_UNIT ( * ) SI_UNIT ( $, .STERADIAN. ) SOLID_ANGLE_UNIT ( ) );
#12 = CARTESIAN_POINT ( 'NONE',  ( 1000.000000000000227, 0.000000000000000000, -400.0000000000000000 ) ) ;
#13 = CARTESIAN_POINT ( 'NONE',  ( 0.000000000000000000, 0.000000000000000000, 0.000000000000000000 ) ) ;
#14 = ADVANCED_FACE ( 'NONE', ( #91 ), #62, .T. ) ;
#15 =( GEOMETRIC_REPRESENTATION_CONTEXT ( 3 ) GLOBAL_UNCERTAINTY_ASSIGNED_CONTEXT ( ( #39 ) ) GLOBAL_UNIT_ASSIGNED_CONTEXT ( ( #3, #33, #95 ) ) REPRESENTATION_CONTEXT ( 'NONE', 'WORKASPACE' ) );
#16 = CARTESIAN_POINT ( 'NONE',  ( -1000.000000000000000, 0.000000000000000000, 6.938893903907229955E-15 ) ) ;
#17 = CARTESIAN_POINT ( 'NONE',  ( -1000.000000000000000, 0.000000000000000000, 6.938893903907229955E-15 ) ) ;
#18 = CARTESIAN_POINT ( 'NONE',  ( -1000.000000000000000, -9.797174393178824474E-14, -400.0000000000000000 ) ) ;
#19 = CARTESIAN_POINT ( 'NONE',  ( -1000.000000000000000, 0.000000000000000000, 6.938893903907229955E-15 ) ) ;
#20 = APPLICATION_CONTEXT ( 'automotive_design' ) ;
#21 = CARTESIAN_POINT ( 'NONE',  ( 1000.000000000000000, 0.000000000000000000, 1.755404207903983596E-14 ) ) ;
#22 = OPEN_SHELL ( 'NONE', ( #99, #14 ) ) ;
#23 = CARTESIAN_POINT ( 'NONE',  ( 1000.000000000000227, 4.898587196589412237E-14, 400.0000000000000000 ) ) ;
#24 = CARTESIAN_POINT ( 'NONE',  ( 1000.000000000000000, 4.898587196589410975E-14, -3.143182988685430218E-14 ) ) ;
#25 = ORIENTED_EDGE ( 'NONE', *, *, #36, .F. ) ;
#26 = SURFACE_STYLE_FILL_AREA ( #31 ) ;
#27 = CARTESIAN_POINT ( 'NONE',  ( 1000.000000000000000, 0.000000000000000000, 1.755404207903983596E-14 ) ) ;
#28 = CARTESIAN_POINT ( 'NONE',  ( -1000.000000000000000, 799.9999999999996589, 399.9999999999998295 ) ) ;
#29 = EDGE_CURVE ( 'NONE', #43, #96, #2, .T. ) ;
#30 = PRODUCT_DEFINITION_CONTEXT ( 'detailed design', #20, 'design' ) ;
#31 = FILL_AREA_STYLE ('',( #94 ) ) ;
#32 = APPLICATION_CONTEXT ( 'automotive_design' ) ;
#33 =( NAMED_UNIT ( * ) PLANE_ANGLE_UNIT ( ) SI_UNIT ( $, .RADIAN. ) );
#34 = CARTESIAN_POINT ( 'NONE',  ( 1000.000000000000000, -4.898587196589412868E-14, -3.143182988685429587E-14 ) ) ;
#35 = CARTESIAN_POINT ( 'NONE',  ( -1000.000000000000000, 4.898587196589412237E-14, 400.0000000000000000 ) ) ;
#36 = EDGE_CURVE ( 'NONE', #43, #96, #85, .T. ) ;
#37 = CARTESIAN_POINT ( 'NONE',  ( -1000.000000000000000, 0.000000000000000000, -400.0000000000000000 ) ) ;
#38 = STYLED_ITEM ( 'NONE', ( #72 ), #44 ) ;
#39 = UNCERTAINTY_MEASURE_WITH_UNIT (LENGTH_MEASURE( 1.000000000000000082E-05 ), #3, 'distance_accuracy_value', 'NONE');
#40 =( BOUNDED_SURFACE ( )  B_SPLINE_SURFACE ( 3, 3, ( 
 ( #4, #24, #93, #63 ),
 ( #23, #84, #83, #70 ),
 ( #50, #55, #42, #18 ),
 ( #16, #54, #86, #48 ) ),
 .UNSPECIFIED., .F., .F., .F. ) 
 B_SPLINE_SURFACE_WITH_KNOTS ( ( 4, 4 ),
 ( 4, 4 ),
 ( 0.000000000000000000, 1.000000000000000000 ),
 ( 0.000000000000000000, 1.000000000000000000 ),
 .UNSPECIFIED. ) 
 GEOMETRIC_REPRESENTATION_ITEM ( )  RATIONAL_B_SPLINE_SURFACE ( (
 ( 1.000000000000000000, 0.3333333333333334259, 0.3333333333333334259, 1.000000000000000000),
 ( 0.3333333333333333703, 0.1111111111111111605, 0.1111111111111111605, 0.3333333333333333703),
 ( 0.3333333333333333703, 0.1111111111111111605, 0.1111111111111111605, 0.3333333333333333703),
 ( 1.000000000000000000, 0.3333333333333334259, 0.3333333333333334259, 1.000000000000000000) ) ) 
 REPRESENTATION_ITEM ( '' )  SURFACE ( )  );
#41 = SURFACE_STYLE_USAGE ( .BOTH. , #71 ) ;
#42 = CARTESIAN_POINT ( 'NONE',  ( -1000.000000000000000, -799.9999999999997726, -399.9999999999997726 ) ) ;
#43 = VERTEX_POINT ( 'NONE', #98 ) ;
#44 = MANIFOLD_SURFACE_SHAPE_REPRESENTATION ( 'ellip', ( #78, #75 ), #61 ) ;
#45 = CARTESIAN_POINT ( 'NONE',  ( 1000.000000000000227, 799.9999999999996589, 399.9999999999998295 ) ) ;
#46 = CARTESIAN_POINT ( 'NONE',  ( -1000.000000000000000, 0.000000000000000000, 6.938893903907229955E-15 ) ) ;
#47 = CARTESIAN_POINT ( 'NONE',  ( 1000.000000000000227, 0.000000000000000000, -400.0000000000000000 ) ) ;
#48 = CARTESIAN_POINT ( 'NONE',  ( -1000.000000000000000, 0.000000000000000000, 6.938893903907229955E-15 ) ) ;
#49 = EDGE_LOOP ( 'NONE', ( #25, #64 ) ) ;
#50 = CARTESIAN_POINT ( 'NONE',  ( -1000.000000000000000, 4.898587196589412237E-14, 400.0000000000000000 ) ) ;
#51 = CARTESIAN_POINT ( 'NONE',  ( 1000.000000000000000, -2.999519565323715391E-30, -3.143182988685430218E-14 ) ) ;
#52 = CARTESIAN_POINT ( 'NONE',  ( -1000.000000000000000, 0.000000000000000000, 6.938893903907229955E-15 ) ) ;
#53 = CARTESIAN_POINT ( 'NONE',  ( 1000.000000000000227, 4.898587196589412237E-14, 400.0000000000000000 ) ) ;
#54 = CARTESIAN_POINT ( 'NONE',  ( -1000.000000000000000, 0.000000000000000000, 6.938893903907229955E-15 ) ) ;
#55 = CARTESIAN_POINT ( 'NONE',  ( -1000.000000000000000, -799.9999999999996589, 400.0000000000001137 ) ) ;
#56 = ORIENTED_EDGE ( 'NONE', *, *, #29, .F. ) ;
#57 = COLOUR_RGB ( '',0.7921568627450980005, 0.8196078431372548767, 0.9333333333333333481 ) ;
#58 =( NAMED_UNIT ( * ) PLANE_ANGLE_UNIT ( ) SI_UNIT ( $, .RADIAN. ) );
#59 = CARTESIAN_POINT ( 'NONE',  ( -1000.000000000000000, 0.000000000000000000, 6.938893903907229955E-15 ) ) ;
#60 = PRODUCT_DEFINITION_FORMATION_WITH_SPECIFIED_SOURCE ( 'ANY', '', #7, .NOT_KNOWN. ) ;
#61 =( GEOMETRIC_REPRESENTATION_CONTEXT ( 3 ) GLOBAL_UNCERTAINTY_ASSIGNED_CONTEXT ( ( #69 ) ) GLOBAL_UNIT_ASSIGNED_CONTEXT ( ( #76, #58, #11 ) ) REPRESENTATION_CONTEXT ( 'NONE', 'WORKASPACE' ) );
#62 =( BOUNDED_SURFACE ( )  B_SPLINE_SURFACE ( 3, 3, ( 
 ( #21, #68, #34, #51 ),
 ( #12, #65, #45, #66 ),
 ( #89, #6, #28, #35 ),
 ( #59, #19, #52, #9 ) ),
 .UNSPECIFIED., .F., .F., .F. ) 
 B_SPLINE_SURFACE_WITH_KNOTS ( ( 4, 4 ),
 ( 4, 4 ),
 ( 0.000000000000000000, 1.000000000000000000 ),
 ( 0.000000000000000000, 1.000000000000000000 ),
 .UNSPECIFIED. ) 
 GEOMETRIC_REPRESENTATION_ITEM ( )  RATIONAL_B_SPLINE_SURFACE ( (
 ( 1.000000000000000000, 0.3333333333333334259, 0.3333333333333334259, 1.000000000000000000),
 ( 0.3333333333333333703, 0.1111111111111111605, 0.1111111111111111605, 0.3333333333333333703),
 ( 0.3333333333333333703, 0.1111111111111111605, 0.1111111111111111605, 0.3333333333333333703),
 ( 1.000000000000000000, 0.3333333333333334259, 0.3333333333333334259, 1.000000000000000000) ) ) 
 REPRESENTATION_ITEM ( '' )  SURFACE ( )  );
#63 = CARTESIAN_POINT ( 'NONE',  ( 1000.000000000000000, 5.999039130647430081E-30, 1.755404207903983281E-14 ) ) ;
#64 = ORIENTED_EDGE ( 'NONE', *, *, #29, .T. ) ;
#65 = CARTESIAN_POINT ( 'NONE',  ( 1000.000000000000227, 799.9999999999996589, -399.9999999999999432 ) ) ;
#66 = CARTESIAN_POINT ( 'NONE',  ( 1000.000000000000227, 4.898587196589412237E-14, 400.0000000000000000 ) ) ;
#67 = PRODUCT_DEFINITION_SHAPE ( 'NONE', 'NONE',  #81 ) ;
#68 = CARTESIAN_POINT ( 'NONE',  ( 1000.000000000000000, -4.898587196589410975E-14, 1.755404207903983596E-14 ) ) ;
#69 = UNCERTAINTY_MEASURE_WITH_UNIT (LENGTH_MEASURE( 1.000000000000000082E-05 ), #76, 'distance_accuracy_value', 'NONE');
#70 = CARTESIAN_POINT ( 'NONE',  ( 1000.000000000000227, -9.797174393178824474E-14, -400.0000000000000000 ) ) ;
#71 = SURFACE_SIDE_STYLE ('',( #26 ) ) ;
#72 = PRESENTATION_STYLE_ASSIGNMENT (( #41 ) ) ;
#73 = CARTESIAN_POINT ( 'NONE',  ( -1000.000000000000000, 0.000000000000000000, 6.938893903907229955E-15 ) ) ;
#74 = DIRECTION ( 'NONE',  ( 1.000000000000000000, 0.000000000000000000, 0.000000000000000000 ) ) ;
#75 = AXIS2_PLACEMENT_3D ( 'NONE', #13, #8, #74 ) ;
#76 =( LENGTH_UNIT ( ) NAMED_UNIT ( * ) SI_UNIT ( .MILLI., .METRE. ) );
#77 = APPLICATION_PROTOCOL_DEFINITION ( 'draft international standard', 'automotive_design', 1998, #32 ) ;
#78 = SHELL_BASED_SURFACE_MODEL ( 'NONE', ( #22 ) );
#79 = CARTESIAN_POINT ( 'NONE',  ( -1000.000000000000000, 4.898587196589412237E-14, 400.0000000000000000 ) ) ;
#80 = CARTESIAN_POINT ( 'NONE',  ( 1000.000000000000000, 0.000000000000000000, 1.755404207903983596E-14 ) ) ;
#81 = PRODUCT_DEFINITION ( 'UNKNOWN', '', #60, #30 ) ;
#82 = MECHANICAL_DESIGN_GEOMETRIC_PRESENTATION_REPRESENTATION (  '', ( #38 ), #15 ) ;
#83 = CARTESIAN_POINT ( 'NONE',  ( 1000.000000000000227, -799.9999999999997726, -399.9999999999997726 ) ) ;
#84 = CARTESIAN_POINT ( 'NONE',  ( 1000.000000000000227, -799.9999999999996589, 400.0000000000001137 ) ) ;
#85 =( BOUNDED_CURVE ( )  B_SPLINE_CURVE ( 3, ( #80, #47, #37, #17 ),
 .UNSPECIFIED., .F., .F. ) 
 B_SPLINE_CURVE_WITH_KNOTS ( ( 4, 4 ),
 ( 3.141592653589793116, 6.283185307179586232 ),
 .UNSPECIFIED. ) 
 CURVE ( )  GEOMETRIC_REPRESENTATION_ITEM ( )  RATIONAL_B_SPLINE_CURVE ( ( 1.000000000000000000, 0.3333333333333333703, 0.3333333333333333703, 1.000000000000000000 ) ) 
 REPRESENTATION_ITEM ( '' )  );
#86 = CARTESIAN_POINT ( 'NONE',  ( -1000.000000000000000, 0.000000000000000000, 6.938893903907229955E-15 ) ) ;
#87 = APPLICATION_PROTOCOL_DEFINITION ( 'draft international standard', 'automotive_design', 1998, #20 ) ;
#88 = ORIENTED_EDGE ( 'NONE', *, *, #36, .T. ) ;
#89 = CARTESIAN_POINT ( 'NONE',  ( -1000.000000000000000, 0.000000000000000000, -400.0000000000000000 ) ) ;
#90 = PRESENTATION_LAYER_ASSIGNMENT (  '', '', ( #38 ) ) ;
#91 = FACE_OUTER_BOUND ( 'NONE', #5, .T. ) ;
#92 = PRODUCT_CONTEXT ( 'NONE', #32, 'mechanical' ) ;
#93 = CARTESIAN_POINT ( 'NONE',  ( 1000.000000000000000, 4.898587196589412237E-14, 1.755404207903982019E-14 ) ) ;
#94 = FILL_AREA_STYLE_COLOUR ( '', #57 ) ;
#95 =( NAMED_UNIT ( * ) SI_UNIT ( $, .STERADIAN. ) SOLID_ANGLE_UNIT ( ) );
#96 = VERTEX_POINT ( 'NONE', #73 ) ;
#97 = SHAPE_DEFINITION_REPRESENTATION ( #67, #44 ) ;
#98 = CARTESIAN_POINT ( 'NONE',  ( 1000.000000000000000, 0.000000000000000000, 1.755404207903983596E-14 ) ) ;
#99 = ADVANCED_FACE ( 'NONE', ( #10 ), #40, .T. ) ;
ENDSEC;
END-ISO-10303-21;
