ISO-10303-21;
HEADER;
FILE_DESCRIPTION (( 'STEP AP214' ),
    '1' );
FILE_NAME ('sphere.STEP',
    '2025-02-03T05:05:28',
    ( '' ),
    ( '' ),
    'SwSTEP 2.0',
    'SolidWorks 2022',
    '' );
FILE_SCHEMA (( 'AUTOMOTIVE_DESIGN' ));
ENDSEC;

DATA;
#1 = DIRECTION ( 'NONE',  ( -0.000000000000000000, 0.000000000000000000, -1.000000000000000000 ) ) ;
#2 = AXIS2_PLACEMENT_3D ( 'NONE', #78, #68, #27 ) ;
#3 =( NAMED_UNIT ( * ) SI_UNIT ( $, .STERADIAN. ) SOLID_ANGLE_UNIT ( ) );
#4 = APPLICATION_CONTEXT ( 'automotive_design' ) ;
#5 = ADVANCED_FACE ( 'NONE', ( #44 ), #77, .T. ) ;
#6 = SURFACE_STYLE_FILL_AREA ( #79 ) ;
#7 = VERTEX_POINT ( 'NONE', #48 ) ;
#8 = FILL_AREA_STYLE_COLOUR ( '', #13 ) ;
#9 = PRESENTATION_STYLE_ASSIGNMENT (( #45 ) ) ;
#10 = UNCERTAINTY_MEASURE_WITH_UNIT (LENGTH_MEASURE( 1.000000000000000082E-05 ), #25, 'distance_accuracy_value', 'NONE');
#11 = DIRECTION ( 'NONE',  ( 1.000000000000000000, 0.000000000000000000, 0.000000000000000000 ) ) ;
#12 = FILL_AREA_STYLE ('',( #18 ) ) ;
#13 = COLOUR_RGB ( '',0.7921568627450980005, 0.8196078431372548767, 0.9333333333333333481 ) ;
#14 = ORIENTED_EDGE ( 'NONE', *, *, #82, .F. ) ;
#15 = ORIENTED_EDGE ( 'NONE', *, *, #82, .T. ) ;
#16 = EDGE_LOOP ( 'NONE', ( #14, #72 ) ) ;
#17 = STYLED_ITEM ( 'NONE', ( #34 ), #33 ) ;
#18 = FILL_AREA_STYLE_COLOUR ( '', #41 ) ;
#19 =( NAMED_UNIT ( * ) PLANE_ANGLE_UNIT ( ) SI_UNIT ( $, .RADIAN. ) );
#20 = CARTESIAN_POINT ( 'NONE',  ( 0.000000000000000000, 0.000000000000000000, 0.000000000000000000 ) ) ;
#21 = SURFACE_SIDE_STYLE ('',( #6 ) ) ;
#22 = MANIFOLD_SOLID_BREP ( 'Revolve1', #24 ) ;
#23 =( LENGTH_UNIT ( ) NAMED_UNIT ( * ) SI_UNIT ( .MILLI., .METRE. ) );
#24 = CLOSED_SHELL ( 'NONE', ( #5, #76 ) ) ;
#25 =( LENGTH_UNIT ( ) NAMED_UNIT ( * ) SI_UNIT ( .MILLI., .METRE. ) );
#26 = PRODUCT_DEFINITION_FORMATION_WITH_SPECIFIED_SOURCE ( 'ANY', '', #53, .NOT_KNOWN. ) ;
#27 = DIRECTION ( 'NONE',  ( 0.000000000000000000, 1.000000000000000000, 0.000000000000000000 ) ) ;
#28 = MECHANICAL_DESIGN_GEOMETRIC_PRESENTATION_REPRESENTATION (  '', ( #71 ), #35 ) ;
#29 = DIRECTION ( 'NONE',  ( 0.000000000000000000, 1.000000000000000000, 1.224646799147353207E-16 ) ) ;
#30 = DIRECTION ( 'NONE',  ( 0.000000000000000000, 1.224646799147353207E-16, -1.000000000000000000 ) ) ;
#31 = PRODUCT_DEFINITION_SHAPE ( 'NONE', 'NONE',  #40 ) ;
#32 = UNCERTAINTY_MEASURE_WITH_UNIT (LENGTH_MEASURE( 1.000000000000000082E-05 ), #23, 'distance_accuracy_value', 'NONE');
#33 = ADVANCED_BREP_SHAPE_REPRESENTATION ( 'sphere', ( #22, #87 ), #55 ) ;
#34 = PRESENTATION_STYLE_ASSIGNMENT (( #81 ) ) ;
#35 =( GEOMETRIC_REPRESENTATION_CONTEXT ( 3 ) GLOBAL_UNCERTAINTY_ASSIGNED_CONTEXT ( ( #10 ) ) GLOBAL_UNIT_ASSIGNED_CONTEXT ( ( #25, #66, #63 ) ) REPRESENTATION_CONTEXT ( 'NONE', 'WORKASPACE' ) );
#36 = VERTEX_POINT ( 'NONE', #64 ) ;
#37 = ORIENTED_EDGE ( 'NONE', *, *, #43, .F. ) ;
#38 = DIRECTION ( 'NONE',  ( 0.000000000000000000, 1.000000000000000000, 0.000000000000000000 ) ) ;
#39 = AXIS2_PLACEMENT_3D ( 'NONE', #20, #1, #38 ) ;
#40 = PRODUCT_DEFINITION ( 'UNKNOWN', '', #26, #51 ) ;
#41 = COLOUR_RGB ( '',0.7921568627450980005, 0.8196078431372548767, 0.9333333333333333481 ) ;
#42 = APPLICATION_CONTEXT ( 'automotive_design' ) ;
#43 = EDGE_CURVE ( 'NONE', #36, #7, #84, .T. ) ;
#44 = FACE_OUTER_BOUND ( 'NONE', #16, .T. ) ;
#45 = SURFACE_STYLE_USAGE ( .BOTH. , #21 ) ;
#46 = PRODUCT_CONTEXT ( 'NONE', #4, 'mechanical' ) ;
#47 =( NAMED_UNIT ( * ) PLANE_ANGLE_UNIT ( ) SI_UNIT ( $, .RADIAN. ) );
#48 = CARTESIAN_POINT ( 'NONE',  ( -250.0000000000000000, 1.530808498934191561E-14, 0.000000000000000000 ) ) ;
#49 = SPHERICAL_SURFACE ( 'NONE', #2, 250.0000000000000000 ) ;
#50 =( LENGTH_UNIT ( ) NAMED_UNIT ( * ) SI_UNIT ( .MILLI., .METRE. ) );
#51 = PRODUCT_DEFINITION_CONTEXT ( 'detailed design', #42, 'design' ) ;
#52 =( NAMED_UNIT ( * ) SI_UNIT ( $, .STERADIAN. ) SOLID_ANGLE_UNIT ( ) );
#53 = PRODUCT ( 'sphere', 'sphere', '', ( #46 ) ) ;
#54 = DIRECTION ( 'NONE',  ( 0.000000000000000000, 0.000000000000000000, 1.000000000000000000 ) ) ;
#55 =( GEOMETRIC_REPRESENTATION_CONTEXT ( 3 ) GLOBAL_UNCERTAINTY_ASSIGNED_CONTEXT ( ( #69 ) ) GLOBAL_UNIT_ASSIGNED_CONTEXT ( ( #50, #19, #3 ) ) REPRESENTATION_CONTEXT ( 'NONE', 'WORKASPACE' ) );
#56 = DIRECTION ( 'NONE',  ( -0.000000000000000000, 0.000000000000000000, 1.000000000000000000 ) ) ;
#57 = AXIS2_PLACEMENT_3D ( 'NONE', #83, #30, #29 ) ;
#58 = FACE_OUTER_BOUND ( 'NONE', #86, .T. ) ;
#59 = CARTESIAN_POINT ( 'NONE',  ( 0.000000000000000000, 0.000000000000000000, 0.000000000000000000 ) ) ;
#60 = SURFACE_SIDE_STYLE ('',( #70 ) ) ;
#61 = MECHANICAL_DESIGN_GEOMETRIC_PRESENTATION_REPRESENTATION (  '', ( #17 ), #80 ) ;
#62 = CARTESIAN_POINT ( 'NONE',  ( 0.000000000000000000, 0.000000000000000000, 0.000000000000000000 ) ) ;
#63 =( NAMED_UNIT ( * ) SI_UNIT ( $, .STERADIAN. ) SOLID_ANGLE_UNIT ( ) );
#64 = CARTESIAN_POINT ( 'NONE',  ( 250.0000000000000000, 1.530808498934191561E-14, 0.000000000000000000 ) ) ;
#65 = PRODUCT_RELATED_PRODUCT_CATEGORY ( 'part', '', ( #53 ) ) ;
#66 =( NAMED_UNIT ( * ) PLANE_ANGLE_UNIT ( ) SI_UNIT ( $, .RADIAN. ) );
#67 = CIRCLE ( 'NONE', #89, 250.0000000000000000 ) ;
#68 = DIRECTION ( 'NONE',  ( -0.000000000000000000, 0.000000000000000000, -1.000000000000000000 ) ) ;
#69 = UNCERTAINTY_MEASURE_WITH_UNIT (LENGTH_MEASURE( 1.000000000000000082E-05 ), #50, 'distance_accuracy_value', 'NONE');
#70 = SURFACE_STYLE_FILL_AREA ( #12 ) ;
#71 = STYLED_ITEM ( 'NONE', ( #9 ), #22 ) ;
#72 = ORIENTED_EDGE ( 'NONE', *, *, #43, .T. ) ;
#73 = PRESENTATION_LAYER_ASSIGNMENT (  '', '', ( #17 ) ) ;
#74 = APPLICATION_PROTOCOL_DEFINITION ( 'draft international standard', 'automotive_design', 1998, #4 ) ;
#75 = PRESENTATION_LAYER_ASSIGNMENT (  '', '', ( #71 ) ) ;
#76 = ADVANCED_FACE ( 'NONE', ( #58 ), #49, .T. ) ;
#77 = SPHERICAL_SURFACE ( 'NONE', #39, 250.0000000000000000 ) ;
#78 = CARTESIAN_POINT ( 'NONE',  ( 0.000000000000000000, 0.000000000000000000, 0.000000000000000000 ) ) ;
#79 = FILL_AREA_STYLE ('',( #8 ) ) ;
#80 =( GEOMETRIC_REPRESENTATION_CONTEXT ( 3 ) GLOBAL_UNCERTAINTY_ASSIGNED_CONTEXT ( ( #32 ) ) GLOBAL_UNIT_ASSIGNED_CONTEXT ( ( #23, #47, #52 ) ) REPRESENTATION_CONTEXT ( 'NONE', 'WORKASPACE' ) );
#81 = SURFACE_STYLE_USAGE ( .BOTH. , #60 ) ;
#82 = EDGE_CURVE ( 'NONE', #36, #7, #67, .T. ) ;
#83 = CARTESIAN_POINT ( 'NONE',  ( 0.000000000000000000, 0.000000000000000000, 0.000000000000000000 ) ) ;
#84 = CIRCLE ( 'NONE', #57, 250.0000000000000000 ) ;
#85 = DIRECTION ( 'NONE',  ( 1.000000000000000000, 0.000000000000000000, 0.000000000000000000 ) ) ;
#86 = EDGE_LOOP ( 'NONE', ( #37, #15 ) ) ;
#87 = AXIS2_PLACEMENT_3D ( 'NONE', #62, #54, #11 ) ;
#88 = SHAPE_DEFINITION_REPRESENTATION ( #31, #33 ) ;
#89 = AXIS2_PLACEMENT_3D ( 'NONE', #59, #56, #85 ) ;
#90 = APPLICATION_PROTOCOL_DEFINITION ( 'draft international standard', 'automotive_design', 1998, #42 ) ;
ENDSEC;
END-ISO-10303-21;
